<svg width="124" height="21" viewBox="0 0 124 21" fill="none" xmlns="http://www.w3.org/2000/svg">
<path d="M10.71 2.86561L12.5608 7.83608L12.7213 8.26698L13.1529 8.42567L18.1349 10.2576L13.1529 12.0895L12.7213 12.2482L12.5608 12.6791L10.71 17.6496L8.85909 12.6791L8.69863 12.2482L8.26706 12.0895L3.28504 10.2576L8.26706 8.42567L8.69863 8.26698L8.85909 7.83608L10.71 2.86561Z" fill="#696876" stroke="#696876" stroke-width="2"/>
<path d="M36.355 3.21766L37.7221 7.39861L37.9474 8.08782H38.6725H43.0788L39.5195 10.6576L38.9274 11.085L39.1544 11.7791L40.5173 15.9473L36.9403 13.3649L36.355 12.9423L35.7696 13.3649L32.1927 15.9473L33.5556 11.7791L33.7825 11.085L33.1905 10.6576L29.6311 8.08782H34.0374H34.7626L34.9879 7.39861L36.355 3.21766Z" fill="#696876" stroke="#696876" stroke-width="2"/>
<path d="M62 3.62273L63.0103 7.14049L63.2767 8.06807L64.2131 7.83481L67.7704 6.94876L65.2266 9.55977L64.5467 10.2576L65.2266 10.9554L67.7704 13.5664L64.2131 12.6804L63.2767 12.4471L63.0103 13.3747L62 16.8925L60.9897 13.3747L60.7233 12.4471L59.7869 12.6804L56.2297 13.5664L58.7734 10.9554L59.4533 10.2576L58.7734 9.55977L56.2297 6.94876L59.7869 7.83481L60.7233 8.06807L60.9897 7.14049L62 3.62273Z" fill="#696876" stroke="#696876" stroke-width="2"/>
<path d="M88.3866 6.97399L88.6802 8.12873L89.7666 7.63928L92.513 6.40181L90.6948 8.77807L89.9638 9.73347L91.0367 10.2776L93.7068 11.6318L90.7047 11.7007L89.5072 11.7282L89.7481 12.9016L90.3513 15.8391L88.4102 13.5319L87.645 12.6223L86.8798 13.5319L84.9387 15.8391L85.5419 12.9016L85.7829 11.7282L84.5853 11.7007L81.5832 11.6318L84.2533 10.2776L85.3262 9.73347L84.5952 8.77807L82.777 6.40181L85.5235 7.63928L86.6098 8.12873L86.9034 6.97399L87.645 4.05769L88.3866 6.97399Z" fill="#696876" stroke="#696876" stroke-width="2"/>
<path d="M113.659 6.77672L113.985 8.36646L115.258 7.36054L116.699 6.22299L115.827 7.81936L115.043 9.25515L116.678 9.29822L118.495 9.34606L116.808 10.0069L115.281 10.6053L116.512 11.6888L117.873 12.8857L116.14 12.31L114.594 11.7965L114.836 13.4074L115.107 15.2155L114.141 13.6505L113.29 12.2715L112.439 13.6505L111.473 15.2155L111.745 13.4074L111.986 11.7965L110.44 12.31L108.707 12.8857L110.068 11.6888L111.299 10.6053L109.772 10.0069L108.085 9.34606L109.902 9.29822L111.537 9.25515L110.753 7.81936L109.882 6.22299L111.322 7.36054L112.595 8.36646L112.921 6.77672L113.29 4.97776L113.659 6.77672Z" fill="#696876" stroke="#696876" stroke-width="2"/>
</svg>
