<svg width="1560" height="280" viewBox="0 0 1560 280" fill="none" xmlns="http://www.w3.org/2000/svg">
<path d="M162.233 92.0655L162.526 93.2252L163.615 92.7312L246.265 55.2564L191.338 127.495L190.614 128.448L191.68 128.991L272.51 170.245L181.786 172.342L180.59 172.369L180.829 173.541L198.973 262.458L140.767 192.834L140 191.916L139.233 192.834L81.0273 262.458L99.1712 173.541L99.4103 172.369L98.2145 172.342L7.48958 170.245L88.3201 128.991L89.3855 128.448L88.6615 127.495L33.7349 55.2564L116.385 92.7312L117.474 93.2252L117.767 92.0655L140 4.08183L162.233 92.0655Z" fill="#686774" stroke="#686774" stroke-width="2"/>
<path d="M460 3.23605L490.481 97.0466L490.705 97.7376H491.432L590.07 97.7376L510.27 155.716L509.682 156.143L509.907 156.834L540.388 250.644L460.588 192.666L460 192.239L459.412 192.666L379.612 250.644L410.093 156.834L410.318 156.143L409.73 155.716L329.93 97.7376L428.568 97.7376H429.295L429.519 97.0466L460 3.23605Z" fill="#686774" stroke="#686774" stroke-width="2"/>
<path d="M780 2.88154L816.875 102.534L817.034 102.966L817.466 103.125L917.118 140L817.466 176.875L817.034 177.034L816.875 177.466L780 277.118L743.125 177.466L742.966 177.034L742.534 176.875L642.882 140L742.534 103.125L742.966 102.966L743.125 102.534L780 2.88154Z" fill="#686774" stroke="#686774" stroke-width="2"/>
<path d="M1117.31 89.9494L1117.64 91.5472L1118.91 90.5325L1186.77 36.5901L1145.43 112.785L1144.65 114.219L1146.28 114.262L1232.94 116.559L1152.3 148.356L1150.78 148.954L1152 150.035L1216.91 207.496L1134.69 180.016L1133.14 179.499L1133.38 181.112L1146.17 266.851L1100.85 192.952L1100 191.562L1099.15 192.952L1053.83 266.851L1066.62 181.112L1066.86 179.499L1065.31 180.016L983.094 207.496L1048 150.035L1049.22 148.954L1047.7 148.356L967.059 116.559L1053.72 114.262L1055.35 114.219L1054.57 112.785L1013.23 36.5901L1081.09 90.5325L1082.36 91.5472L1082.69 89.9494L1100 5.00798L1117.31 89.9494Z" fill="#686774" stroke="#686774" stroke-width="2"/>
<path d="M1420 3.64392L1445.78 93.9635L1446.04 94.8945L1446.98 94.6591L1538.09 71.822L1472.76 139.304L1472.08 140L1472.76 140.696L1538.09 208.178L1446.98 185.341L1446.04 185.106L1445.78 186.036L1420 276.356L1394.22 186.036L1393.96 185.106L1393.02 185.341L1301.91 208.178L1367.24 140.696L1367.92 140L1367.24 139.304L1301.91 71.822L1393.02 94.6591L1393.96 94.8945L1394.22 93.9635L1420 3.64392Z" fill="#686774" stroke="#686774" stroke-width="2"/>
</svg>
