<svg width="1629" height="263" viewBox="0 0 1629 263" fill="none" xmlns="http://www.w3.org/2000/svg">
<path d="M130.9 2.89317L165.317 96.3287L165.475 96.7602L165.906 96.9204L258.93 131.5L165.906 166.08L165.475 166.24L165.317 166.671L130.9 260.107L96.4835 166.671L96.3245 166.24L95.8935 166.08L2.86998 131.5L95.8935 96.9204L96.3245 96.7602L96.4835 96.3287L130.9 2.89317Z" fill="#E9EAEB" stroke="#E9EAEB" stroke-width="2"/>
<path d="M472.7 3.24951L501.137 91.172L501.361 91.8643H502.089H594.127L519.663 146.214L519.078 146.64L519.301 147.329L547.741 235.261L473.29 180.921L472.7 180.491L472.111 180.921L397.659 235.261L426.099 147.329L426.322 146.64L425.737 146.214L351.273 91.8643H443.311H444.039L444.263 91.172L472.7 3.24951Z" fill="#E9EAEB" stroke="#E9EAEB" stroke-width="2"/>
<path d="M814.5 3.65934L838.538 88.2741L838.803 89.2075L839.744 88.9705L924.717 67.5734L863.779 130.806L863.111 131.5L863.779 132.194L924.717 195.427L839.744 174.029L838.803 173.793L838.538 174.726L814.5 259.341L790.462 174.726L790.197 173.793L789.256 174.029L704.283 195.427L765.221 132.194L765.889 131.5L765.221 130.806L704.283 67.5734L789.256 88.9705L790.197 89.2075L790.462 88.2741L814.5 3.65934Z" fill="#E9EAEB" stroke="#E9EAEB" stroke-width="2"/>
<path d="M1177.02 86.4896L1177.32 87.6529L1178.41 87.1557L1255.46 52.0599L1204.25 119.72L1203.53 120.669L1204.59 121.213L1279.95 159.853L1195.37 161.817L1194.17 161.845L1194.41 163.016L1211.33 246.287L1157.07 181.089L1156.3 180.165L1155.53 181.089L1101.27 246.287L1118.19 163.016L1118.43 161.845L1117.23 161.817L1032.65 159.853L1108.01 121.213L1109.07 120.669L1108.35 119.72L1057.14 52.0599L1134.19 87.1557L1135.28 87.6529L1135.58 86.4896L1156.3 4.0994L1177.02 86.4896Z" fill="#E9EAEB" stroke="#E9EAEB" stroke-width="2"/>
<path d="M1514.22 84.4994L1514.55 86.1032L1515.82 85.082L1579.03 34.6111L1540.52 105.911L1539.75 107.342L1541.37 107.385L1622.1 109.535L1546.97 139.292L1545.46 139.89L1546.68 140.969L1607.14 194.744L1530.56 169.029L1529.01 168.51L1529.25 170.124L1541.16 250.345L1498.95 181.208L1498.1 179.809L1497.25 181.208L1455.04 250.345L1466.95 170.124L1467.19 168.51L1465.64 169.029L1389.06 194.744L1449.52 140.969L1450.74 139.89L1449.23 139.292L1374.1 109.535L1454.83 107.385L1456.45 107.342L1455.68 105.911L1417.17 34.6111L1480.38 85.082L1481.65 86.1032L1481.98 84.4994L1498.1 5.03005L1514.22 84.4994Z" fill="#E9EAEB" stroke="#E9EAEB" stroke-width="2"/>
</svg>
