<svg width="274" height="267" viewBox="0 0 274 267" fill="none" xmlns="http://www.w3.org/2000/svg">
<path d="M159.233 92.0655L159.526 93.2252L160.615 92.7312L243.265 55.2564L188.338 127.495L187.614 128.448L188.68 128.991L269.51 170.245L178.786 172.342L177.59 172.369L177.829 173.541L195.973 262.458L137.767 192.834L137 191.916L136.233 192.834L78.0273 262.458L96.1712 173.541L96.4103 172.369L95.2145 172.342L4.48958 170.245L85.3201 128.991L86.3855 128.448L85.6615 127.495L30.7349 55.2564L113.385 92.7312L114.474 93.2252L114.767 92.0655L137 4.08183L159.233 92.0655Z" fill="#686774" stroke="#686774" stroke-width="2"/>
</svg>
