<svg width="276" height="272" viewBox="0 0 276 272" fill="none" xmlns="http://www.w3.org/2000/svg">
<path d="M155.31 89.9494L155.635 91.5472L156.912 90.5325L224.771 36.5901L183.432 112.785L182.654 114.219L184.284 114.262L270.941 116.559L190.296 148.356L188.779 148.954L190 150.035L254.906 207.496L172.69 180.016L171.144 179.499L171.384 181.112L184.17 266.851L138.852 192.952L138 191.562L137.148 192.952L91.83 266.851L104.616 181.112L104.856 179.499L103.31 180.016L21.0935 207.496L86 150.035L87.221 148.954L85.704 148.356L5.05882 116.559L91.7156 114.262L93.3457 114.219L92.568 112.785L51.2288 36.5901L119.088 90.5325L120.365 91.5472L120.69 89.9494L138 5.00798L155.31 89.9494Z" fill="#686774" stroke="#686774" stroke-width="2"/>
</svg>
